<svg id="Capa_1" enable-background="new 0 0 512 512" height="512" viewBox="0 0 512 512" width="512" xmlns="http://www.w3.org/2000/svg"><g><g fill="#4dc4ff"><path d="m492.484 160.375-27.832 11.25c10.84 26.777 17.348 55.166 17.348 84.375 0 124.072-101.928 226-226 226-54.719 0-107.161-21.154-147.927-56.765l44.919-6.55-4.307-29.692-87.685 12.774v79.233h30v-31.009c45.829 38.947 104.132 62.009 165 62.009 140.596 0 256-115.39 256-256 0-33.091-7.24-65.259-19.516-95.625z"/><path d="m256 30c54.719 0 107.161 21.154 147.927 56.765l-44.919 6.55 4.307 29.692 87.685-12.774v-79.233h-30v31.009c-45.829-38.947-104.132-62.009-165-62.009-140.596 0-256 115.39-256 256 0 33.091 7.24 65.259 19.516 95.625l27.832-11.25c-10.84-26.777-17.348-55.166-17.348-84.375 0-124.072 101.928-226 226-226z"/></g><path d="m391 271v-30h-31.516c-2.567-17.701-9.417-33.885-19.686-47.591l22.256-22.267-21.211-21.211-22.256 22.267c-13.705-10.267-29.888-17.117-47.587-19.682v-31.516h-30v31.516c-17.699 2.565-33.882 9.415-47.587 19.682l-22.256-22.267-21.211 21.211 22.256 22.267c-10.269 13.705-17.119 29.89-19.686 47.591h-31.516v30h31.516c2.567 17.701 9.417 33.885 19.686 47.591l-22.256 22.267 21.211 21.211 22.256-22.267c13.705 10.267 29.888 17.117 47.587 19.682v31.516h30v-31.516c17.699-2.565 33.882-9.415 47.587-19.682l22.256 22.267 21.211-21.211-22.256-22.267c10.269-13.705 17.119-29.89 19.686-47.591zm-135 30c-24.814 0-45-20.186-45-45s20.186-45 45-45 45 20.186 45 45-20.186 45-45 45z" fill="#5a77b3"/><path d="m391 271v-30h-31.516c-2.567-17.701-9.417-33.885-19.686-47.591l22.256-22.267-21.211-21.211-22.256 22.267c-13.705-10.267-29.888-17.117-47.587-19.682v-31.516h-15v90c24.814 0 45 20.186 45 45s-20.186 45-45 45v90h15v-31.516c17.699-2.565 33.882-9.415 47.587-19.682l22.256 22.267 21.211-21.211-22.256-22.267c10.269-13.705 17.119-29.89 19.686-47.591z" fill="#4d5b99"/><g fill="#4da6ff"><path d="m512 256c0-33.091-7.24-65.259-19.516-95.625l-27.832 11.25c10.84 26.777 17.348 55.166 17.348 84.375 0 124.072-101.928 226-226 226v30c140.596 0 256-115.39 256-256z"/><path d="m403.927 86.765-44.919 6.55 4.307 29.692 87.685-12.774v-79.233h-30v31.009c-45.829-38.947-104.132-62.009-165-62.009v30c54.719 0 107.161 21.154 147.927 56.765z"/></g></g></svg>